<?xml version="1.0" encoding="iso-8859-1"?>
<!-- Uploaded to: SVG Repo, www.svgrepo.com, Generator: SVG Repo Mixer Tools -->
<svg height="800px" width="800px" version="1.1" id="Layer_1" xmlns="http://www.w3.org/2000/svg" xmlns:xlink="http://www.w3.org/1999/xlink" 
	 viewBox="0 0 512.002 512.002" xml:space="preserve">
<path style="fill:#FEE187;" d="M386.015,485.696L268.349,26.651c-0.687-2.679-2.738-4.508-5.058-4.508H150.503
	c-2.329,0-4.384,1.839-5.063,4.532L29.27,486.472c-0.487,1.943-0.19,4.051,0.807,5.683c0.999,1.632,2.576,2.595,4.254,2.595h89.103
	c2.377,0,4.467-1.918,5.103-4.693l25.987-113.326h100.879l28.193,113.459c0.673,2.709,2.734,4.56,5.072,4.56h92.482
	c0.017,0,0.035,0,0.043,0c2.924,0,5.295-2.867,5.295-6.404C386.488,487.399,386.322,486.502,386.015,485.696z M169.889,286.149
	l20.676-89.411c3.754-16.112,7.304-35.175,10.736-53.614c0.785-4.235,1.558-8.39,2.326-12.452
	c4.542,22.088,9.539,45.95,14.547,66.132l21.689,89.344h-69.974V286.149z"/>
<g>
	<path style="fill:#FFC61B;" d="M220.525,127.196c-1.651-8.026-8.716-13.777-16.896-13.777c-0.047,0-0.097,0-0.143,0
		c-8.24,0.067-15.283,5.954-16.812,14.053c-0.768,4.08-1.546,8.253-2.362,12.658c-3.388,18.192-6.892,37.004-10.555,52.72
		l-20.676,89.411c-1.185,5.124,0.033,10.508,3.305,14.624s8.245,6.514,13.503,6.514h69.975c5.291,0,10.291-2.429,13.562-6.589
		c3.271-4.161,4.451-9.592,3.202-14.733l-21.71-89.43C229.898,172.424,224.857,148.259,220.525,127.196z M191.585,268.897
		l12.849-55.56l13.488,55.56H191.585z"/>
	<path style="fill:#FFC61B;" d="M477.663,148.577h-85.718c-12.432,0-22.545,10.612-22.545,23.656v179.161l-84.339-329.03
		c-2.64-10.287-11.59-17.474-21.77-17.474H150.503c-10.223,0-19.182,7.223-21.789,17.557L12.538,482.277
		c-1.611,6.425-0.583,13.303,2.834,18.896C19.53,507.953,26.619,512,34.334,512h89.103c10.455,0,19.465-7.432,21.919-18.089
		l22.914-99.928h73.645l24.939,100.363c2.579,10.394,11.55,17.656,21.815,17.656h188.995c12.432,0,22.546-10.612,22.546-23.656
		V172.233C500.209,159.188,490.094,148.577,477.663,148.577z M298.219,477.496L272.148,372.57
		c-1.911-7.691-8.817-13.091-16.743-13.091h-100.88c-8.043,0-15.018,5.557-16.815,13.396L113.72,477.498H49.334L160.021,39.393
		h93.786l112.298,438.103H298.219z M465.705,477.496h-61.801V183.081h61.801V477.496z"/>
	<path style="fill:#FFC61B;" d="M434.043,122.661c-17.964,0-34.271-6.568-45.916-18.494c-11.033-11.297-16.957-26.409-16.705-42.588
		c-0.245-16.557,5.674-31.863,16.691-43.131C399.734,6.552,416.23,0,434.555,0c36.069,0,62.83,25.692,63.634,61.087
		c0.217,9.525-7.33,17.423-16.857,17.64c-9.563,0.205-17.424-7.332-17.638-16.857c-0.376-16.624-11.814-27.367-29.138-27.367
		c-8.957,0-16.688,2.862-21.767,8.06c-4.573,4.679-7.009,11.31-6.863,18.675c0.005,0.238,0.005,0.476,0,0.714
		c-0.148,6.977,2.296,13.406,6.887,18.108c5.098,5.222,12.637,8.096,21.23,8.096c9.526,0,17.252,7.724,17.252,17.252
		S443.569,122.661,434.043,122.661z"/>
</g>
</svg>